HIERARCHY
ROOT Hips
{
	OFFSET	0.00	0.00	0.00
	CHANNELS 6 Xposition Yposition Zposition Zrotation Xrotation Yrotation
	JOINT Spine
	{
		OFFSET	 0.00	0.01	 0.00
		CHANNELS 3 Zrotation Xrotation Yrotation
		JOINT Spine1
		{
			OFFSET	 0.00	 2.45913012437421	 0.00
			CHANNELS 3 Zrotation Xrotation Yrotation
            JOINT Neck
            {
                OFFSET	 0.00	 2.48462964506057	 0.00
                CHANNELS 3 Zrotation Xrotation Yrotation
                JOINT Head
                {
                    OFFSET	 0.00	 0.927524780924562	 0.00
                    CHANNELS 3 Zrotation Xrotation Yrotation
                    End Site 
                    {
                        OFFSET	 0.00	 1.14999962169752	 0.00
                    }
                }
            }
			JOINT LeftShoulder
			{
				OFFSET	 0.00	 2.48462964506057	 0.00
				CHANNELS 3 Zrotation Xrotation Yrotation
				JOINT LeftUpArm
				{
					OFFSET	 0.00	 1.24881979654096	 0.00
					CHANNELS 3 Zrotation Xrotation Yrotation
					JOINT LeftForeArm
					{
						OFFSET	 0.00	2.59758046908119	 0.00
						CHANNELS 3 Zrotation Xrotation Yrotation
						JOINT LeftHand
						{
							OFFSET	 0.00	2.45542024364365	 0.00
							CHANNELS 3 Zrotation Xrotation Yrotation
							JOINT LeftHandThumb 
							{
								OFFSET	 0.00	0.00	 0.00
								CHANNELS 3 Zrotation Xrotation Yrotation
								End Site
								{
									OFFSET	 0.00	0.00	1.00000003353624
								}
							}
							JOINT L_Wrist_End 
							{
								OFFSET	 0.00	0.99999967115358	 0.00
								CHANNELS 3 Zrotation Xrotation Yrotation
								End Site 
								{
									OFFSET	 0.00	 0.00	 0.00
								}
							}
						}
					}
				}
			}
			JOINT RightShoulder
			{
				OFFSET	 0.00	 2.48462964506057	 0.00
				CHANNELS 3 Zrotation Xrotation Yrotation
				JOINT RightUpArm
				{
					OFFSET	 0.00	 1.24881979654096	 0.00
					CHANNELS 3 Zrotation Xrotation Yrotation
					JOINT RightForeArm
					{
						OFFSET	 0.00	2.59758046908119	 0.00
						CHANNELS 3 Zrotation Xrotation Yrotation
						JOINT RightHand
						{
							OFFSET	 0.00	2.45542024364365	 0.00
							CHANNELS 3 Zrotation Xrotation Yrotation
							JOINT RightHandThumb 
							{
								OFFSET	 0.00	0.00	 0.00
								CHANNELS 3 Zrotation Xrotation Yrotation
								End Site
								{
									OFFSET	 0.00	0.00	1.00000003353624
								}
							}
							JOINT R_Wrist_End 
							{
								OFFSET	 0.00	0.99999967115358	 0.00
								CHANNELS 3 Zrotation Xrotation Yrotation
								End Site 
								{
									OFFSET	 0.00	 0.00	 0.00
								}
							}
						}
					}
				}
			}
		}
	}
	JOINT LeftUpLeg
	{
		OFFSET	 1.2719394002717	 0.00	 0.00
		CHANNELS 3 Zrotation Xrotation Yrotation
		JOINT LeftLowLeg
		{
			OFFSET	 0.00	-4.3429100912261	 0.00
			CHANNELS 3 Zrotation Xrotation Yrotation
			JOINT LeftFoot
			{
				OFFSET	 0.00	-4.48767017425826	 0.00
				CHANNELS 3 Zrotation Xrotation Yrotation
				JOINT LeftToeBase
                {
                    OFFSET	 0.00	0.00	 1.51507020887566
                    CHANNELS 3 Zrotation Xrotation Yrotation
                    End Site 
                    {
                        OFFSET	 0.00	0.00	 0.75000010571191
                    }
                }
			}
		}
	}
	JOINT RightUpLeg
	{
		OFFSET	 -1.2719393604653	 0.00	 0.00
		CHANNELS 3 Zrotation Xrotation Yrotation
		JOINT RightLowLeg
		{
			OFFSET	 0.00	-4.3429100912261	 0.00
			CHANNELS 3 Zrotation Xrotation Yrotation
			JOINT RightFoot
			{
				OFFSET	 0.00	-4.48767017425826	 0.00
				CHANNELS 3 Zrotation Xrotation Yrotation
				JOINT RightToeBase
                {
                    OFFSET	 0.00	0.00	 1.51507020887566
                    CHANNELS 3 Zrotation Xrotation Yrotation
                    End Site 
                    {
                        OFFSET	 0.00	0.00	 0.749999965609858
                    }
                }   
			}
		}
	}
}
MOTION 
Frames:	8 
Frame Time: 0.02 
  -3.6743798828125 9.920969848632813 9.023099975585938 -128.948 81.8525 491.672 -2.4243 -7.34143 0.711157 13.2718 2.24217 1.76102 -39.9754 9.08391 531.662 -88.1397 24.5975 -798.247 -89.84779 9.89658 363.192 -56.9707 -2.14517 82.085 0.0 61.8355 0.0 81.7275 24.8175 -8.03886 0.0 0.0 0.0 0.0 0.0 0.0 117.053696 -4.24856 -359.355 67.0817 47.4568 -338.736 0.0 149.547 0.0 46.7194 52.498 52.1874 0.0 0.0 0.0 0.0 0.0 0.0 -2.07338 -37.0836 -385.935 0.0 54.9463 0.0 -39.8689 -5.1754 16.083 0.0 -23.87958 0.0 18.6425 -6.05751 16.6661 0.0 18.5248 0.0 18.1766 -10.6124 -13.9859 0.0 -20.0835 0.0 
  -3.690880126953125 9.930800170898438 9.017260131835938 -127.998 81.6871 491.028 -2.67411 -7.2444 0.636442 13.6884 2.16671 1.81796 -39.5917 9.1675 531.451 -88.2143 24.7892 -798.24 -89.64465 10.1081 363.215 -57.3834 -2.16878 82.0841 0.0 61.6566 0.0 81.6723 24.6631 -7.87575 0.0 0.0 0.0 0.0 0.0 0.0 117.4227 -4.14471 -359.401 66.9984 47.4071 -338.94 0.0 149.564 0.0 47.7955 53.0164 51.7151 0.0 0.0 0.0 0.0 0.0 0.0 -2.00132 -37.2161 -386.379 0.0 55.016 0.0 -40.0139 -5.2409 15.9639 0.0 -23.8568 0.0 18.8973 -6.13331 16.422 0.0 18.4325 0.0 18.1671 -10.5473 -13.9485 0.0 -20.13864 0.0 
  -3.70635009765625 9.937890014648438 9.011890258789062 -127.244 81.5204 490.578 -2.85852 -7.21854 0.571776 14.0015 2.1247 1.84206 -39.2364 9.28692 531.259 -88.2425 24.9177 -798.275 -89.47095 10.2913 363.219 -57.7492 -2.12986 82.2202 0.0 61.4175 0.0 81.813 24.4203 -7.85788 0.0 0.0 0.0 0.0 0.0 0.0 117.7032 -4.0579 -359.445 66.8606 47.3593 -339.137 0.0 149.622 0.0 48.315 52.966 51.5227 0.0 0.0 0.0 0.0 0.0 0.0 -1.94726 -37.3762 -386.773 0.0 55.1134 0.0 -40.1793 -5.3062 15.8468 0.0 -23.86569 0.0 19.1377 -6.17067 16.2733 0.0 18.2653 0.0 18.1835 -10.5137005 -13.9905 0.0 -20.19104 0.0 
  -3.720060119628906 9.946220092773437 9.00677978515625 -126.689 81.3449 490.281 -2.94169 -7.18728 0.535002 14.2002 2.08895 1.85492 -38.9031 9.34942 531.09 -88.177 25.0764 -798.378 -89.38409 10.3575 363.246 -57.9258 -1.98009 82.4046 0.0 61.2709 0.0 81.8566 24.2167 -8.03248 0.0 0.0 0.0 0.0 0.0 0.0 117.8466 -3.94596 -359.532 66.7432 47.3363 -339.177 0.0 149.665 0.0 48.8961 52.8104 50.7897 0.0 0.0 0.0 0.0 0.0 0.0 -1.88365 -37.5858 -387.093 0.0 55.2343 0.0 -40.186 -5.2908993 15.7953 0.0 -23.805 0.0 19.3684 -6.31049 16.067 0.0 18.2556 0.0 18.1374 -10.4687 -13.9689 0.0 -20.23017 0.0 
  -3.7331500244140625 9.953099975585937 9.003330078125 -126.49 81.2577 490.267 -3.06904 -7.16519 0.510622 14.3437 2.08787 1.87893 -38.6765 9.4428 530.966 -88.1774 25.1373 -798.414 -89.34357 10.3807 363.287 -58.0392 -1.82834 82.5429 0.0 61.1949 0.0 81.8508 24.128 -8.06993 0.0 0.0 0.0 0.0 0.0 0.0 117.9383 -3.94581 -359.597 66.6831 47.3855 -339.16 0.0 149.655 0.0 49.2499 53.0528 50.0761 0.0 0.0 0.0 0.0 0.0 0.0 -1.86022 -37.6992 -387.354 0.0 55.2523 0.0 -40.3209 -5.300699 15.7185 0.0 -23.73817 0.0 19.4941 -6.34686 15.9204 0.0 18.0967 0.0 18.1364 -10.4387 -13.9748 0.0 -20.25631 0.0 
  -3.7454098510742186 9.95927001953125 9.000999755859375 -126.549 81.2129 490.499 -3.17656 -7.13395 0.476532 14.392 2.04194 1.90204 -38.4902 9.70078 530.681 -88.211 25.0992 -798.302 -89.35056 10.4438 363.379 -58.0632 -1.75993 82.5485 0.0 61.1996 0.0 81.9932 24.0591 -8.09848 0.0 0.0 0.0 0.0 0.0 0.0 118.025 -3.92507 -359.626 66.4871 47.4675 -339.125 0.0 149.619 0.0 49.5395 53.0423 49.9169 0.0 0.0 0.0 0.0 0.0 0.0 -1.85253 -37.8007 -387.502 0.0 55.2169 0.0 -40.3143 -5.2302 15.677 0.0 -23.81149 0.0 19.5734 -6.44023 15.7365 0.0 18.0636 0.0 18.0478 -10.4039 -13.9857 0.0 -20.27539 0.0 
  -3.7582998657226563 9.963729858398438 8.9997998046875 -126.883 81.2346 490.909 -3.33203 -7.11599 0.466273 14.4353 2.03226 1.95004 -38.3781 9.93837 530.458 -88.249 25.0301 -798.215 -89.3552 10.4882 363.473 -58.0499 -1.75845 82.4411 0.0 61.2767 0.0 82.0343 24.0798 -7.95302 0.0 0.0 0.0 0.0 0.0 0.0 118.0644 -3.95142 -359.496 66.374 47.4965 -339.249 0.0 149.656 0.0 49.6912 52.8624 49.9775 0.0 0.0 0.0 0.0 0.0 0.0 -1.79276 -37.8207 -387.462 0.0 55.0802 0.0 -40.3402 -5.211399 15.5905 0.0 -23.68281 0.0 19.6018 -6.58124 15.5975 0.0 18.2092 0.0 18.0186 -10.402201 -13.9034 0.0 -20.22394 0.0 
  -3.7690301513671876 9.967949829101563 8.999340209960938 -127.148 81.2444 491.252 -3.37758 -7.06679 0.411753 14.3874 2.00054 1.92221 -38.3527 10.0344 530.42 -88.2385 24.9903 -798.279 -89.37585 10.375 363.553 -57.9746 -1.8153 82.2629 0.0 61.4428 0.0 81.8936 24.1756 -7.94894 0.0 0.0 0.0 0.0 0.0 0.0 118.0572 -3.99655 -359.352 66.4529 47.4989 -339.431 0.0 149.577 0.0 49.7484 52.9467 50.051 0.0 0.0 0.0 0.0 0.0 0.0 -1.70018 -37.8837 -387.29 0.0 54.9818 0.0 -40.1134 -5.0898 15.58 0.0 -23.662811 0.0 19.58 -6.63666 15.1871 0.0 18.1485 0.0 17.9666 -10.276501 -13.6682 0.0 -20.25626 0.0 
